<?xml version="1.0" encoding="utf-8"?>
<!-- Generator: Adobe Illustrator 25.0.1, SVG Export Plug-In . SVG Version: 6.00 Build 0)  -->
<svg version="1.1" id="Layer_1" xmlns="http://www.w3.org/2000/svg" xmlns:xlink="http://www.w3.org/1999/xlink" x="0px" y="0px"
	 viewBox="0 0 1500 912" style="enable-background:new 0 0 1500 912;" xml:space="preserve">
<style type="text/css">
	.st0{clip-path:url(#SVGID_2_);}
	.st1{fill:none;stroke:#00DFFC;stroke-width:41;stroke-miterlimit:10;}
	.st2{fill:#FFFFFF;}
	.st3{font-family:'Inter-Bold';}
	.st4{font-size:26px;}
</style>
<g id="Group_9" transform="translate(-1 1)">
	<g>
		<defs>
			<rect id="SVGID_1_" x="-48.2" y="-288" width="1600" height="1200"/>
		</defs>
		<clipPath id="SVGID_2_">
			<use xlink:href="#SVGID_1_"  style="overflow:visible;"/>
		</clipPath>
		<g id="Group_8" class="st0">
			<g id="Group_1">
				<circle id="Ellipse_1" class="st1" cx="166.3" cy="852.5" r="116.7"/>
				<text transform="matrix(1 0 0 1 131.6202 857.7357)" class="st2 st3 st4">Sales</text>
			</g>
			<g id="Group_2">
				<circle id="Ellipse_2" class="st1" cx="269.3" cy="391.9" r="116.7"/>
				<text transform="matrix(1 0 0 1 203.0042 382.0906)" class="st2 st3 st4">Customer </text>
				<text transform="matrix(1 0 0 1 220.7361 413.2906)" class="st2 st3 st4">Service</text>
			</g>
			<g id="Group_3">
				<circle id="Ellipse_3" class="st1" cx="746.2" cy="164.5" r="116.7"/>
				<text transform="matrix(1 0 0 1 674.7662 170.7567)" class="st2 st3 st4">Leadership</text>
			</g>
			<g id="Group_4">
				<circle id="Ellipse_4" class="st1" cx="746.2" cy="517.5" r="116.7"/>
				<text transform="matrix(1 0 0 1 681.1693 523.6816)" class="st2 st3 st4">Marketing</text>
			</g>
			<g id="Group_5">
				<circle id="Ellipse_5" class="st1" cx="1228.5" cy="391.9" r="116.7"/>
				<text transform="matrix(1 0 0 1 1177.8602 376.0906)" class="st2 st3 st4">Product</text>
				<text transform="matrix(1 0 0 1 1143.7672 407.2906)" class="st2 st3 st4">Development</text>
			</g>
			<g id="Group_6">
				<circle id="Ellipse_6" class="st1" cx="1334" cy="852.5" r="116.7"/>
				<text transform="matrix(1 0 0 1 1263.2113 858.7357)" class="st2 st3 st4">Maintenance</text>
			</g>
			<g id="Group_7">
				<circle id="Ellipse_7" class="st1" cx="749.2" cy="852.5" r="116.7"/>
				<text transform="matrix(1 0 0 1 675.5272 858.7357)" class="st2 st3 st4">Accounting</text>
			</g>
			<line id="Line_1" class="st1" x1="386" y1="400.8" x2="629.6" y2="517.5"/>
			<line id="Line_2" class="st1" x1="1111.9" y1="407.6" x2="868.3" y2="524.2"/>
			<line id="Line_3" class="st1" x1="166.3" y1="735.8" x2="197.9" y2="484.1"/>
			<line id="Line_4" class="st1" x1="1334" y1="735.8" x2="1294.7" y2="487.9"/>
			<line id="Line_5" class="st1" x1="269.3" y1="275.2" x2="638.5" y2="119.8"/>
			<line id="Line_6" class="st1" x1="1228.5" y1="278.2" x2="851.9" y2="118.1"/>
			<line id="Line_7" class="st1" x1="283" y1="852.5" x2="655.3" y2="590.6"/>
			<line id="Line_8" class="st1" x1="1217.3" y1="848.5" x2="845" y2="586.6"/>
			<line id="Line_9" class="st1" x1="745.2" y1="735.8" x2="746.2" y2="634.1"/>
			<line id="Line_10" class="st1" x1="746.2" y1="400.8" x2="746.2" y2="281.2"/>
		</g>
	</g>
</g>
</svg>
